<?xml version="1.0" standalone="no"?>
<!DOCTYPE svg PUBLIC "-//W3C//DTD SVG 20010904//EN"
 "http://www.w3.org/TR/2001/REC-SVG-20010904/DTD/svg10.dtd">
<svg version="1.0" xmlns="http://www.w3.org/2000/svg"
 width="1200.000000pt" height="1200.000000pt" viewBox="0 0 1200.000000 1200.000000"
 preserveAspectRatio="xMidYMid meet">

<g transform="translate(0.000000,1200.000000) scale(0.100000,-0.100000)"
fill="#2f55d4" stroke="none">
<path d="M4605 9994 c-134 -21 -302 -88 -416 -164 -82 -56 -203 -177 -259
-259 -50 -74 -114 -207 -131 -272 l-12 -46 -106 -6 c-252 -15 -477 -121 -657
-309 -168 -175 -264 -407 -267 -648 -1 -63 2 -147 6 -185 l9 -70 -59 -28
c-245 -119 -455 -324 -575 -560 -83 -165 -138 -391 -138 -567 0 -150 47 -361
113 -511 l16 -35 -82 -54 c-100 -65 -265 -229 -330 -326 -318 -480 -283 -1079
90 -1519 104 -123 281 -256 417 -315 48 -20 48 -21 42 -58 -58 -335 51 -695
285 -946 218 -234 494 -357 804 -358 66 -1 139 2 162 6 l43 8 20 -49 c132
-313 358 -537 659 -650 236 -89 531 -90 768 -3 163 60 279 135 409 264 147
148 234 291 288 477 38 133 46 238 46 626 l0 362 -912 3 c-900 3 -913 3 -948
24 -19 11 -45 35 -57 54 -22 32 -23 42 -23 239 0 235 6 258 76 298 l39 23 913
0 912 0 0 305 0 304 -457 3 c-435 3 -460 4 -490 23 -58 34 -65 71 -61 317 3
202 4 219 24 245 40 53 35 53 527 53 l457 0 0 305 0 304 -912 3 c-900 3 -913
3 -948 24 -19 11 -45 35 -57 54 -22 32 -23 42 -23 239 0 235 6 258 76 298 l39
23 913 0 912 0 0 305 0 304 -457 3 c-435 3 -460 4 -490 23 -58 34 -65 71 -61
317 3 202 4 219 24 245 40 53 35 53 527 53 l459 0 -4 483 c-4 482 -4 482 -30
577 -51 185 -132 326 -262 456 -94 93 -176 151 -290 205 -131 61 -219 80 -386
84 -80 2 -158 1 -175 -1z"/>
<path d="M7110 9994 c-247 -45 -427 -139 -586 -306 -114 -119 -196 -266 -242
-438 -26 -95 -26 -96 -30 -577 l-3 -483 459 0 459 0 34 -23 c54 -37 61 -71 57
-317 -3 -243 -7 -255 -79 -284 -34 -14 -102 -16 -484 -16 l-445 0 0 -305 0
-305 912 0 911 0 42 -25 c70 -40 75 -62 75 -298 0 -195 -1 -205 -23 -237 -12
-19 -38 -43 -57 -54 -35 -21 -47 -21 -947 -24 l-913 -2 0 -305 0 -305 459 0
458 0 34 -23 c54 -37 61 -71 57 -317 -3 -243 -7 -255 -79 -284 -34 -14 -102
-16 -484 -16 l-445 0 0 -305 0 -305 912 0 911 0 42 -25 c70 -40 75 -62 75
-298 0 -195 -1 -205 -23 -237 -12 -19 -38 -43 -57 -54 -35 -21 -47 -21 -947
-24 l-913 -2 0 -369 c0 -203 5 -405 10 -448 54 -404 320 -746 697 -899 238
-96 535 -103 781 -20 288 98 549 340 662 614 18 43 35 80 39 84 3 4 48 3 99
-2 245 -23 499 43 719 186 82 53 250 225 308 314 152 235 215 530 169 801 l-6
36 66 31 c164 77 368 249 475 402 183 261 263 593 216 904 -35 231 -118 420
-266 601 -86 106 -209 215 -305 271 l-44 26 17 36 c31 71 72 198 89 272 25
108 25 366 1 480 -49 230 -165 454 -321 618 -94 99 -252 214 -370 268 l-58 26
8 67 c5 36 8 118 8 181 -4 258 -100 486 -284 671 -183 185 -395 282 -642 296
l-106 6 -12 46 c-16 65 -72 181 -125 262 -131 196 -322 334 -560 405 -75 22
-114 27 -235 29 -80 2 -156 2 -170 -1z"/>
</g>
</svg>
